<svg preserveAspectRatio="none" width="100%" height="100%" overflow="visible" style="display: block;" viewBox="0 0 24 24" fill="none" xmlns="http://www.w3.org/2000/svg">
<g id="ph:arrow-up-thin">
<path id="Vector" d="M19.0153 10.7653C18.9805 10.8002 18.9391 10.8278 18.8936 10.8467C18.8481 10.8656 18.7993 10.8753 18.75 10.8753C18.7007 10.8753 18.6519 10.8656 18.6064 10.8467C18.5609 10.8278 18.5195 10.8002 18.4847 10.7653L12.375 4.65562V20.25C12.375 20.3495 12.3355 20.4448 12.2652 20.5152C12.1948 20.5855 12.0995 20.625 12 20.625C11.9005 20.625 11.8052 20.5855 11.7348 20.5152C11.6645 20.4448 11.625 20.3495 11.625 20.25V4.65562L5.51531 10.7653C5.48047 10.8002 5.43911 10.8278 5.39359 10.8466C5.34806 10.8655 5.29927 10.8752 5.25 10.8752C5.20073 10.8752 5.15194 10.8655 5.10641 10.8466C5.06089 10.8278 5.01953 10.8002 4.98469 10.7653C4.94985 10.7305 4.92221 10.6891 4.90335 10.6436C4.8845 10.5981 4.87479 10.5493 4.87479 10.5C4.87479 10.4507 4.8845 10.4019 4.90335 10.3564C4.92221 10.3109 4.94985 10.2695 4.98469 10.2347L11.7347 3.48469C11.7695 3.44982 11.8109 3.42216 11.8564 3.40329C11.9019 3.38442 11.9507 3.3747 12 3.3747C12.0493 3.3747 12.0981 3.38442 12.1436 3.40329C12.1891 3.42216 12.2305 3.44982 12.2653 3.48469L19.0153 10.2347C19.0502 10.2695 19.0778 10.3109 19.0967 10.3564C19.1156 10.4019 19.1253 10.4507 19.1253 10.5C19.1253 10.5493 19.1156 10.5981 19.0967 10.6436C19.0778 10.6891 19.0502 10.7305 19.0153 10.7653Z" fill="var(--fill-0, #238C4D)" style="fill:#238C4D;fill:color(display-p3 0.1367 0.5490 0.3003);fill-opacity:1;"/>
</g>
</svg>
