<svg preserveAspectRatio="none" width="100%" height="100%" overflow="visible" style="display: block;" viewBox="0 0 13.89 13.89" fill="none" xmlns="http://www.w3.org/2000/svg">
<g id="twemoji:flag-nigeria" clip-path="url(#clip0_15_2354)">
<path id="Vector" d="M1.54333 1.92917C1.13402 1.92917 0.741463 2.09177 0.452032 2.3812C0.162601 2.67063 0 3.06318 0 3.4725L0 10.4175C0 10.8268 0.162601 11.2194 0.452032 11.5088C0.741463 11.7982 1.13402 11.9608 1.54333 11.9608H4.63V1.92917H1.54333Z" fill="var(--fill-0, #009A49)" style="fill:#009A49;fill:color(display-p3 0.0000 0.6039 0.2863);fill-opacity:1;"/>
<path id="Vector_2" d="M4.63 1.92917H9.26V11.9608H4.63V1.92917Z" fill="var(--fill-0, #EEEEEE)" style="fill:#EEEEEE;fill:color(display-p3 0.9333 0.9333 0.9333);fill-opacity:1;"/>
<path id="Vector_3" d="M12.3467 1.92917H9.26V11.9608H12.3467C12.756 11.9608 13.1485 11.7982 13.438 11.5088C13.7274 11.2194 13.89 10.8268 13.89 10.4175V3.4725C13.89 3.06318 13.7274 2.67063 13.438 2.3812C13.1485 2.09177 12.756 1.92917 12.3467 1.92917Z" fill="var(--fill-0, #009A49)" style="fill:#009A49;fill:color(display-p3 0.0000 0.6039 0.2863);fill-opacity:1;"/>
</g>
<defs>
<clipPath id="clip0_15_2354">
<rect width="13.89" height="13.89" fill="white" style="fill:white;fill-opacity:1;"/>
</clipPath>
</defs>
</svg>
