<svg preserveAspectRatio="none" width="100%" height="100%" overflow="visible" style="display: block;" viewBox="0 0 24 29.3378" fill="none" xmlns="http://www.w3.org/2000/svg">
<g id="Group">
<path id="Vector" d="M22.6667 16.0006C22.6667 22.6673 18 26.0006 12.4533 27.9339C12.1629 28.0324 11.8474 28.0276 11.56 27.9206C6 26.0006 1.33333 22.6673 1.33333 16.0006V6.66727C1.33333 5.93138 1.93078 5.33393 2.66667 5.33393C5.33333 5.33393 8.66667 3.73393 10.9867 1.70727C11.5702 1.20869 12.4298 1.20869 13.0133 1.70727C15.3467 3.74727 18.6667 5.33393 21.3333 5.33393C22.0692 5.33393 22.6667 5.93138 22.6667 6.66727V16.0006" stroke="var(--stroke-0, #A855F7)" style="stroke:#A855F7;stroke:color(display-p3 0.6588 0.3333 0.9686);stroke-opacity:1;" stroke-width="2.66667" stroke-linecap="round" stroke-linejoin="round"/>
<path id="Vector_2" d="M8 14.6673L10.6667 17.3339L16 12.0006" stroke="var(--stroke-0, #A855F7)" style="stroke:#A855F7;stroke:color(display-p3 0.6588 0.3333 0.9686);stroke-opacity:1;" stroke-width="2.66667" stroke-linecap="round" stroke-linejoin="round"/>
</g>
</svg>
